<?xml version="1.0" standalone="no"?><!DOCTYPE svg PUBLIC "-//W3C//DTD SVG 1.1//EN" "http://www.w3.org/Graphics/SVG/1.1/DTD/svg11.dtd"><svg t="1763704937302" class="icon" viewBox="0 0 1163 1024" version="1.1" xmlns="http://www.w3.org/2000/svg" p-id="5079" xmlns:xlink="http://www.w3.org/1999/xlink" width="290.75" height="256"><path d="M581.107957 276.252444c76.261166 0 138.08114-61.841442 138.08114-138.126222S657.369122 0 581.107957 0s-138.08114 61.841442-138.081141 138.126222 61.819975 138.126222 138.081141 138.126222z m188.954834 41.539623c48.250365 0 90.54135 25.524864 114.116964 63.812159l0.062256-0.034348 260.402986 439.710323-0.040789 0.023615c12.026096 20.093585 18.938633 43.60265 18.938633 68.723924C1163.542841 964.01979 1103.581953 1024 1029.613516 1024c-46.013451 0-86.608503-23.212813-110.718658-58.569795l-0.244729 0.154566-259.956462-439.377576c-14.25013-21.291472-22.560201-46.895765-22.560201-74.442868 0-73.989904 59.960889-133.97226 133.929325-133.97226zM347.511445 390.489627c54.527463 0 101.940595 30.473124 126.149501 75.320889l216.600688 363.124998a121.008034 121.008034 0 0 1 24.775648 73.554113c0 67.109568-54.385778 121.510373-121.471732 121.510373-44.922901 0-84.150474-24.395673-105.167161-60.665023l-0.195355 0.126658c-15.521006-23.652897-24.277602-37.733434-26.271933-42.23517-0.328453-0.742776-1.154952-2.271262-2.372159-4.422306l-1.081962-1.893434c-4.400839-7.653166-12.279413-20.8106-20.578751-34.620645l-2.941048-4.894592-1.474818-2.451589-1.470524-2.447295c-10.774541-17.92322-21.042449-35.024235-24.170264-40.78826-7.107891-13.103765-23.79673-41.256252-58.550474-59.248168-34.751597-17.989769-64.205015-21.641392-108.513945-7.060662-44.306784 14.578583-70.175128 53.870558-81.507824 88.858297-11.334843 34.985593 0.107338 67.57756 1.399681 75.722332 1.290197 8.144771 7.444931 19.578365 14.439044 30.151111 6.994113 10.572746 8.176973 21.07465 8.176973 26.078725 0 5.004075-4.576872 24.228226-18.213031 30.698533-13.638306 6.468159-29.784017 9.529426-69.230558-2.447296S28.843504 972.220377 8.507336 926.318558c-20.336168-45.90182 1.242969-101.041107 8.565535-116.38608 4.825895-10.113342 73.240688-125.402432 205.24223-345.86727a144.403321 144.403321 0 0 1 4.435187-7.41273c0.027908-0.038642 0.051522-0.081577 0.077283-0.124512 25.475488-39.719178 70.007681-66.03834 120.683874-66.038339z" fill="#03BBFA" p-id="5080"></path></svg>